<?xml version="1.0" encoding="utf-8"?>
<!-- Generator: Adobe Illustrator 25.0.0, SVG Export Plug-In . SVG Version: 6.00 Build 0)  -->
<svg version="1.1" id="Capa_1" xmlns="http://www.w3.org/2000/svg" xmlns:xlink="http://www.w3.org/1999/xlink" x="0px" y="0px"
	 viewBox="0 0 512 512" style="enable-background:new 0 0 512 512;" xml:space="preserve">
<style type="text/css">
	.st0{fill:#FFFFFF;stroke:#B0B0B0;stroke-width:6.7408;stroke-miterlimit:10;}
	.st1{fill:#48A3DB;}
</style>
<path class="st0" d="M256,9.5C119.9,9.5,9.5,119.9,9.5,256S119.9,502.5,256,502.5S502.5,392.1,502.5,256S392.1,9.5,256,9.5z"/>
<g>
	<path class="st1" d="M261.3,254.6c0,47-28.5,73.8-66.9,73.8c-39.7,0-64.6-30.3-64.6-71.3c0-43.2,27.2-73.6,66.7-73.6
		C237.2,183.6,261.3,214.5,261.3,254.6z M156.7,256.5c0,28.7,14.3,51.3,38.9,51.3c24.7,0,38.7-23.1,38.7-52.4
		c0-26.4-13.1-51.3-38.7-51.3C170.3,204.1,156.7,227.6,156.7,256.5z"/>
	<path class="st1" d="M283.3,188.1c9.8-1.9,23.9-3.1,38.7-3.1c20.2,0,33.7,3.3,43.2,11.2c7.7,6.4,12.1,16.2,12.1,28.3
		c0,18.1-12.3,30.3-25.6,34.9v0.6c10.2,3.7,16.2,13.5,19.5,27c4.6,17.5,8.3,33.7,11,39.1h-26.2c-2.1-4.2-5.6-15.6-9.4-33.1
		c-4.2-18.3-10.6-24.1-25.2-24.5h-12.9v57.6h-25.4V188.1z M308.7,249.9h15.2c17.3,0,27.9-9.1,27.9-23.1c0-15.2-10.6-22.4-27.2-22.4
		c-8.1,0-13.3,0.6-15.8,1.2V249.9z"/>
</g>
</svg>
